<svg xmlns="http://www.w3.org/2000/svg" xmlns:xlink="http://www.w3.org/1999/xlink" width="211" height="211" viewBox="0 0 211 211">
  <defs>
    <clipPath id="clip-path">
      <rect id="Rectangle_6185" data-name="Rectangle 6185" width="211" height="211" transform="translate(0.235 0.569)" fill="#fff"/>
    </clipPath>
  </defs>
  <g id="payment-error" transform="translate(-0.235 -0.569)" clip-path="url(#clip-path)">
    <path id="Path_14282" data-name="Path 14282" d="M409.871,983.945a11.656,11.656,0,0,1,11.655-11.656h56.086a11.656,11.656,0,0,1,11.656,11.656v99.805a11.655,11.655,0,0,1-11.656,11.655H421.526a11.655,11.655,0,0,1-11.655-11.655ZM421.526,973.4a10.545,10.545,0,0,0-10.545,10.546v99.805a10.545,10.545,0,0,0,10.545,10.545h56.086a10.545,10.545,0,0,0,10.546-10.545V983.945A10.545,10.545,0,0,0,477.613,973.4Z" transform="translate(-380.818 -903.298)" fill="#f1f1f1" fill-rule="evenodd"/>
    <path id="Path_14283" data-name="Path 14283" d="M1011.63,1146.38a2.775,2.775,0,0,1,2.775,2.775v101.713a2.775,2.775,0,0,1-2.775,2.775H948.043a2.775,2.775,0,0,1-2.775-2.775v-53.822l9.451,2.756a1.663,1.663,0,0,0,1.349-.187l6.276-3.922a1.664,1.664,0,0,1,2.156.339l6.323,7.509a1.664,1.664,0,0,0,2.077.385l10.343-5.7a1.666,1.666,0,0,1,1.767.1l6.239,4.427a1.666,1.666,0,0,0,1.667.152l12.946-6.028a1.666,1.666,0,0,1,1.72.191l6.824,5.264v-53.181a2.775,2.775,0,0,0-2.775-2.775H948.043l-.109,0,.11,0Z" transform="translate(-878.55 -1065.141)" fill="#75acff" fill-rule="evenodd"/>
    <path id="Path_14284" data-name="Path 14284" d="M1140.37,517.708H1148v5.084h-7.625Z" transform="translate(-1059.926 -480.697)" fill="#e5e5e5"/>
    <path id="Path_14285" data-name="Path 14285" d="M656.226,105.82h44.227v31.518H656.226Z" transform="translate(-609.842 -97.785)" fill="#f9d22d"/>
    <path id="Path_14286" data-name="Path 14286" d="M229.882,803.4a11.1,11.1,0,0,1,11.1-11.1h56.086a11.1,11.1,0,0,1,11.1,11.1v99.805a11.1,11.1,0,0,1-11.1,11.1H240.982a11.1,11.1,0,0,1-11.1-11.1Z" transform="translate(-213.491 -735.971)" fill="#f1f1f1"/>
    <path id="Path_14287" data-name="Path 14287" d="M221.993,796.066a11.655,11.655,0,0,1,11.655-11.655h56.086a11.655,11.655,0,0,1,11.656,11.655v99.806a11.655,11.655,0,0,1-11.656,11.655H233.648a11.655,11.655,0,0,1-11.655-11.655Zm11.655-10.545A10.545,10.545,0,0,0,223.1,796.066v99.806a10.546,10.546,0,0,0,10.545,10.546h56.086a10.546,10.546,0,0,0,10.546-10.546V796.066a10.545,10.545,0,0,0-10.546-10.545Z" transform="translate(-206.157 -728.637)" fill="#3e3d3d" fill-rule="evenodd"/>
    <path id="Path_14288" data-name="Path 14288" d="M287.693,794.812a11.055,11.055,0,0,1,7.033-2.512h56.086a11.056,11.056,0,0,1,7.034,2.512V911.794a11.056,11.056,0,0,1-7.034,2.513H294.726a11.058,11.058,0,0,1-7.033-2.512Z" transform="translate(-267.235 -735.971)" fill="#fff" fill-rule="evenodd"/>
    <path id="Path_14289" data-name="Path 14289" d="M374.407,1105.8a2.775,2.775,0,0,1,2.775-2.775h52.4a2.775,2.775,0,0,1,2.775,2.775v33.594a2.775,2.775,0,0,1-2.775,2.775h-52.4a2.775,2.775,0,0,1-2.775-2.775Z" transform="translate(-347.849 -1024.832)" fill="#f1f1f1" opacity="0.5"/>
    <path id="Path_14290" data-name="Path 14290" d="M374.407,1803.95H389.15v9.151H374.407Zm20.842,0h14.742v9.151H395.25Zm20.843,0H432.36v9.151H416.093Zm-41.686,14.743h14.742v9.151H374.407Zm20.843,0h14.742v9.151H395.25Zm20.843,0H432.36v9.151H416.092Z" transform="translate(-347.849 -1676.451)" fill="#4dc6fc"/>
    <path id="Path_14291" data-name="Path 14291" d="M374.407,2230.29h14.742v9.151H374.407Z" transform="translate(-347.849 -2072.798)" fill="#fd6e9a"/>
    <path id="Path_14292" data-name="Path 14292" d="M670.674,2230.29h14.742v9.151H670.674Z" transform="translate(-623.273 -2072.798)" fill="#4dc6fc"/>
    <path id="Path_14293" data-name="Path 14293" d="M966.947,2230.29h16.267v9.151H966.947Z" transform="translate(-898.704 -2072.798)" fill="#fd6e9a"/>
    <path id="Path_14294" data-name="Path 14294" d="M221.993,796.066a11.655,11.655,0,0,1,11.655-11.655h56.086a11.655,11.655,0,0,1,11.656,11.655v99.806a11.655,11.655,0,0,1-11.656,11.655H233.648a11.655,11.655,0,0,1-11.655-11.655Zm11.655-10.545A10.545,10.545,0,0,0,223.1,796.066v99.806a10.546,10.546,0,0,0,10.545,10.546h56.086a10.546,10.546,0,0,0,10.546-10.546V796.066a10.545,10.545,0,0,0-10.546-10.545Z" transform="translate(-206.157 -728.637)" fill="#3e3d3d" fill-rule="evenodd"/>
    <path id="Path_14295" data-name="Path 14295" d="M432.214,474.351h49.819v35.077H432.214Z" transform="translate(-401.589 -440.39)" fill="#f1f1f1"/>
    <path id="Path_14296" data-name="Path 14296" d="M482.033,400.457H432.214v-2.8l.011-.013q-.011-.119-.011-.242a2.542,2.542,0,0,1,2.542-2.542h49.819l-2.542,2.8Z" transform="translate(-401.589 -366.496)" fill="#f1f1f1" fill-rule="evenodd"/>
    <path id="Path_14297" data-name="Path 14297" d="M1217.714,520.25a2.542,2.542,0,1,1-2.542-2.542A2.541,2.541,0,0,1,1217.714,520.25Z" transform="translate(-1127.103 -480.697)" fill="#f9d22d"/>
    <path id="Path_14298" data-name="Path 14298" d="M1145.454,397.407a2.542,2.542,0,1,1-2.542-2.542A2.542,2.542,0,0,1,1145.454,397.407Z" transform="translate(-1059.926 -366.496)" fill="#e5e5e5"/>
    <path id="Path_14299" data-name="Path 14299" d="M1140.37,430.995h5.083v11.184h-5.083Z" transform="translate(-1059.926 -400.084)" fill="#e5e5e5"/>
    <path id="Path_14300" data-name="Path 14300" d="M578.786,1152.824A17.284,17.284,0,1,1,561.5,1135.54,17.284,17.284,0,0,1,578.786,1152.824Z" transform="translate(-505.714 -1055.064)" fill="#f15846"/>
    <path id="Path_14301" data-name="Path 14301" d="M432.214,922.37h49.819v3.559H432.214Z" transform="translate(-401.589 -856.891)" fill="#e5e5e5"/>
    <path id="Path_14302" data-name="Path 14302" d="M634.526,1244.564l18.724-18.724,3.14,3.14L637.666,1247.7Z" transform="translate(-589.668 -1139.011)" fill="#fff" fill-rule="evenodd"/>
    <path id="Path_14303" data-name="Path 14303" d="M637.669,1225.84l18.724,18.724-3.14,3.14-18.724-18.724Z" transform="translate(-589.671 -1139.011)" fill="#fff" fill-rule="evenodd"/>
    <path id="Path_14304" data-name="Path 14304" d="M1501.68,1881.02V1936.6h15.759v-54.114l-7.257,3.378a1.664,1.664,0,0,1-1.666-.152l-6.239-4.427A1.659,1.659,0,0,0,1501.68,1881.02Z" transform="translate(-1395.818 -1748.099)" fill="#5295f9" fill-rule="evenodd"/>
    <path id="Path_14305" data-name="Path 14305" d="M1733.713,742.829a2.776,2.776,0,0,1-1.59,3.588L1682.5,765.554l2.456-8.261a1.666,1.666,0,0,0-.441-1.673l-10.282-9.911a1.666,1.666,0,0,1-.458-1.61l1.885-7.414a1.664,1.664,0,0,0-.542-1.685l-9.039-7.6a1.666,1.666,0,0,1-.388-2.077l4.73-8.6a1.665,1.665,0,0,0-.46-2.134l-5.918-4.444a1.667,1.667,0,0,1-.659-1.192l-.829-9.809,44.684-17.233a2.775,2.775,0,0,1,3.588,1.591Z" transform="translate(-1545.38 -633.174)" fill="#75acff" fill-rule="evenodd"/>
    <path id="Path_14306" data-name="Path 14306" d="M837.129,1250.239l-5.671-14.7h0l5.671,14.7Zm70.237-27.089-5.763-5.555a1.666,1.666,0,0,1-.458-1.609l1.886-7.414a1.658,1.658,0,0,0,.033-.654l48.221-18.6,5.671,14.7Z" transform="translate(-772.746 -1105.061)" fill="#5295f9" fill-rule="evenodd"/>
    <path id="Path_14307" data-name="Path 14307" d="M1474.88,320.043a15.5,15.5,0,1,1-15.505-15.5A15.5,15.5,0,0,1,1474.88,320.043Z" transform="translate(-1342.075 -282.523)" fill="#f15846"/>
    <path id="Path_14308" data-name="Path 14308" d="M1989.276,454.4a5.338,5.338,0,1,0-5.338,5.338A5.338,5.338,0,0,0,1989.276,454.4Z" transform="translate(-1839.186 -416.878)" fill="#f9d22d"/>
    <path id="Path_14309" data-name="Path 14309" d="M1539.96,415.373,1554.7,400.63l2.747,2.747-14.743,14.743Z" transform="translate(-1431.405 -371.855)" fill="#fff" fill-rule="evenodd"/>
    <path id="Path_14310" data-name="Path 14310" d="M1542.707,400.631l14.743,14.743-2.747,2.747-14.744-14.743Z" transform="translate(-1431.405 -371.856)" fill="#fff" fill-rule="evenodd"/>
    <path id="Path_14311" data-name="Path 14311" d="M2104.35,2790.32h-46.26v7.116h46.26Z" transform="translate(-1913.084 -2593.43)" fill="#fd6e9a"/>
    <path id="Path_14312" data-name="Path 14312" d="M2183.841,2696.38h-46.26v6.608h46.26Z" transform="translate(-1986.982 -2506.098)" fill="#4dc6fc"/>
    <path id="Path_14313" data-name="Path 14313" d="M2140.48,2595.21h-46.26v7.117h46.26Z" transform="translate(-1946.672 -2412.046)" fill="#fbdf07"/>
    <path id="Path_14314" data-name="Path 14314" d="M-5.629,2884.145a.555.555,0,0,1,.555-.555H197a.555.555,0,1,1,0,1.11H-5.074A.555.555,0,0,1-5.629,2884.145Z" transform="translate(5.451 -2680.138)" fill="#3e3d3d" fill-rule="evenodd"/>
    <path id="Path_14315" data-name="Path 14315" d="M2168.477,2064.54H2130.35v-1.11h38.127Zm0,9.913H2130.35v-1.11h38.127Zm-18.3,10.676H2130.35v-1.11h19.826Z" transform="translate(-1980.261 -1917.677)" fill="#f1f1f1" fill-rule="evenodd"/>
    <path id="Path_14316" data-name="Path 14316" d="M578.786,543.446H544.218v-1.11h34.568Zm0,8.9H544.218v-1.11h34.568Zm0,8.134H544.218v-1.11h34.568Z" transform="translate(-505.714 -503.592)" fill="#3e3d3d" fill-rule="evenodd"/>
  </g>
</svg>
