<svg xmlns="http://www.w3.org/2000/svg" xmlns:xlink="http://www.w3.org/1999/xlink" width="196" height="197" viewBox="0 0 196 197">
  <defs>
    <clipPath id="clip-path">
      <rect id="Rectangle_6186" data-name="Rectangle 6186" width="196" height="197" transform="translate(0.473 -0.334)" fill="#fff"/>
    </clipPath>
  </defs>
  <g id="card-payment" transform="translate(-0.473 0.334)" clip-path="url(#clip-path)">
    <path id="Path_14317" data-name="Path 14317" d="M1795.44,400.976h7.335v4.9h-7.335Z" transform="translate(-1678 -375.071)" fill="#e5e5e5"/>
    <path id="Path_14318" data-name="Path 14318" d="M1292.87-26.582h42.54V3.776h-42.54Z" transform="translate(-1208.19 24.577)" fill="#f9d22d"/>
    <path id="Path_14319" data-name="Path 14319" d="M280.234,1131.316a2.734,2.734,0,0,1,2.732-2.735h55.656a2.733,2.733,0,0,1,2.732,2.735v97.845a2.734,2.734,0,0,1-2.732,2.736H282.966a2.734,2.734,0,0,1-2.732-2.736Z" transform="translate(-261.564 -1055.178)" fill="#75acff"/>
    <path id="Path_14320" data-name="Path 14320" d="M1.815,2962.238a.547.547,0,0,1,.546-.548H196.723a.547.547,0,0,1,0,1.095H2.362A.547.547,0,0,1,1.815,2962.238Z" transform="translate(-1.294 -2768.626)" fill="#3e3d3d" fill-rule="evenodd"/>
    <path id="Path_14321" data-name="Path 14321" d="M850.311,696.958a10.935,10.935,0,0,1,10.928-10.943h53.445a10.935,10.935,0,0,1,10.928,10.943v95.631a10.935,10.935,0,0,1-10.928,10.943H861.239a10.935,10.935,0,0,1-10.928-10.943Z" transform="translate(-794.48 -641.503)" fill="#f1f1f1"/>
    <path id="Path_14322" data-name="Path 14322" d="M841.929,689.123a11.482,11.482,0,0,1,11.474-11.49h53.445a11.482,11.482,0,0,1,11.474,11.49v95.631a11.482,11.482,0,0,1-11.474,11.49H853.4a11.482,11.482,0,0,1-11.474-11.49Zm11.474-10.4a10.388,10.388,0,0,0-10.381,10.4v95.631a10.389,10.389,0,0,0,10.381,10.4h53.445a10.389,10.389,0,0,0,10.382-10.4V689.123a10.388,10.388,0,0,0-10.382-10.4Z" transform="translate(-786.644 -633.668)" fill="#3e3d3d" fill-rule="evenodd"/>
    <path id="Path_14323" data-name="Path 14323" d="M910.319,688.568a10.875,10.875,0,0,1,7.016-2.553H970.78a10.875,10.875,0,0,1,7.016,2.553V800.979a10.875,10.875,0,0,1-7.016,2.553H917.335a10.875,10.875,0,0,1-7.016-2.553Z" transform="translate(-850.576 -641.503)" fill="#fff" fill-rule="evenodd"/>
    <path id="Path_14324" data-name="Path 14324" d="M2258.047,1543.668a10.023,10.023,0,1,1-10.023-10.038A10.03,10.03,0,0,1,2258.047,1543.668Z" transform="translate(-2091.712 -1433.787)" fill="#f9d22d"/>
    <path id="Path_14325" data-name="Path 14325" d="M1000.33,1011.3a2.734,2.734,0,0,1,2.732-2.736h50.278a2.734,2.734,0,0,1,2.732,2.736v32.232a2.734,2.734,0,0,1-2.732,2.736h-50.278a2.734,2.734,0,0,1-2.732-2.736Z" transform="translate(-934.72 -942.993)" fill="#f1f1f1" opacity="0.5"/>
    <path id="Path_14326" data-name="Path 14326" d="M1000.33,1736.16h14.18v8.814h-14.18Zm20.047,0h14.18v8.814h-14.18Zm20.048,0h15.647v8.814h-15.647Zm-40.1,14.2h14.18v8.814h-14.18Zm20.047,0h14.18v8.814h-14.18Zm20.048,0h15.647v8.814h-15.647Z" transform="translate(-934.72 -1623.097)" fill="#4dc6fc"/>
    <path id="Path_14327" data-name="Path 14327" d="M1000.33,2178.72h14.18v8.814h-14.18Z" transform="translate(-934.72 -2036.767)" fill="#fd6e9a"/>
    <path id="Path_14328" data-name="Path 14328" d="M1307.87,2178.72h14.18v8.814h-14.18Z" transform="translate(-1222.212 -2036.767)" fill="#4dc6fc"/>
    <path id="Path_14329" data-name="Path 14329" d="M1615.42,2178.72h15.646v8.814H1615.42Z" transform="translate(-1509.714 -2036.767)" fill="#fd6e9a"/>
    <path id="Path_14330" data-name="Path 14330" d="M841.929,689.123a11.482,11.482,0,0,1,11.474-11.49h53.445a11.482,11.482,0,0,1,11.474,11.49v95.631a11.482,11.482,0,0,1-11.474,11.49H853.4a11.482,11.482,0,0,1-11.474-11.49Zm11.474-10.4a10.388,10.388,0,0,0-10.381,10.4v95.631a10.389,10.389,0,0,0,10.381,10.4h53.445a10.389,10.389,0,0,0,10.382-10.4V689.123a10.388,10.388,0,0,0-10.382-10.4Z" transform="translate(-786.644 -633.668)" fill="#3e3d3d" fill-rule="evenodd"/>
    <path id="Path_14331" data-name="Path 14331" d="M1060.34,355.97h47.918v33.786H1060.34Z" transform="translate(-990.818 -333.003)" fill="#f1f1f1"/>
    <path id="Path_14332" data-name="Path 14332" d="M1062.79,273.459H1110.7l-2.445,2.693v2.693H1060.34v-2.693l.011-.012c-.007-.077-.011-.154-.011-.233a2.446,2.446,0,0,1,2.445-2.448Z" transform="translate(-990.818 -255.878)" fill="#f1f1f1" fill-rule="evenodd"/>
    <path id="Path_14333" data-name="Path 14333" d="M1875.34,403.424a2.445,2.445,0,1,1-2.444-2.448A2.446,2.446,0,0,1,1875.34,403.424Z" transform="translate(-1748.12 -375.071)" fill="#f9d22d"/>
    <path id="Path_14334" data-name="Path 14334" d="M1800.329,275.907a2.445,2.445,0,1,1-2.444-2.448A2.446,2.446,0,0,1,1800.329,275.907Z" transform="translate(-1678 -255.878)" fill="#e5e5e5"/>
    <path id="Path_14335" data-name="Path 14335" d="M1795.44,310.964h4.89v10.772h-4.89Z" transform="translate(-1678 -290.935)" fill="#e5e5e5"/>
    <path id="Path_14336" data-name="Path 14336" d="M475.26,1128.58h13.691V1231.9H475.26Z" transform="translate(-443.877 -1055.178)" fill="#5295f9"/>
    <path id="Path_14337" data-name="Path 14337" d="M1226.164,1076.494a15.4,15.4,0,1,1-15.4-15.424A15.413,15.413,0,0,1,1226.164,1076.494Z" transform="translate(-1117.036 -992.075)" fill="#fff"/>
    <path id="Path_14338" data-name="Path 14338" d="M1191.168,1042.846A14.056,14.056,0,1,0,1205.2,1056.9,14.047,14.047,0,0,0,1191.168,1042.846ZM1174.4,1056.9a16.768,16.768,0,1,1,16.768,16.792A16.78,16.78,0,0,1,1174.4,1056.9Z" transform="translate(-1097.443 -972.483)" fill="#e5e5e5" fill-rule="evenodd"/>
    <path id="Path_14339" data-name="Path 14339" d="M31.812,4.261,9.519,22.243,0,8.817,4.455,5.649l6.158,8.686L28.385,0Z" transform="translate(79.256 75.939) rotate(-14)" fill="#24dc8c" fill-rule="evenodd"/>
    <path id="Path_14340" data-name="Path 14340" d="M21.741,10.627A10.751,10.751,0,0,1,10.87,21.253,10.751,10.751,0,0,1,0,10.627,10.751,10.751,0,0,1,10.87,0,10.751,10.751,0,0,1,21.741,10.627Z" transform="matrix(0.875, -0.485, 0.485, 0.875, 21.535, 48.344)" fill="#24dc8c"/>
    <path id="Path_14341" data-name="Path 14341" d="M15.347,2.3,3.91,9.664,0,3.34,2.323,1.9,4.77,5.858,13.869,0Z" transform="matrix(0.951, -0.309, 0.309, 0.951, 27.882, 50.866)" fill="#fff" fill-rule="evenodd"/>
    <path id="Path_14342" data-name="Path 14342" d="M1893.1,892.393a18.825,18.825,0,1,1-18.825-18.852A18.839,18.839,0,0,1,1893.1,892.393Z" transform="translate(-1734.098 -816.788)" fill="#fbdf07"/>
    <path id="Path_14343" data-name="Path 14343" d="M1220.114,1526.6l-16.38-13.221c-2.931-2.258-8.025-12.221-2.969-21.438a2.317,2.317,0,0,1,.318-.447,2.486,2.486,0,0,1,3.357-.182c10.093,7.814,26.927,20.975,27.653,22.067a7.274,7.274,0,0,0,.825.926,20.071,20.071,0,0,1,1.437,1.584c1.6,2,3.539,5.449,4.339,12.18.17,1.436.374,2.914.583,4.422,1.282,9.294,2.72,19.714-2.539,28.14-.163,2.2,1.956,10.576,11.735,26.442h-64.054c-.489-1.143-1.858-3.624-3.422-4.407-.258-.129-.652-.3-1.15-.509-3.282-1.395-11.1-4.719-14.5-11.733h.691a2.734,2.734,0,0,0,2.732-2.736V1555.73h40.959a10.389,10.389,0,0,0,10.382-10.4Z" transform="translate(-1088.983 -1393.7)" fill="#efcb96" fill-rule="evenodd"/>
    <path id="Path_14344" data-name="Path 14344" d="M1060.34,821.033h47.918v3.428H1060.34Z" transform="translate(-990.818 -767.707)" fill="#e5e5e5"/>
    <path id="Path_14345" data-name="Path 14345" d="M1206.109,431.193H1172.86V430.1h33.249Zm0,8.569H1172.86v-1.094h33.249Zm0,7.834H1172.86V446.5h33.249Z" transform="translate(-1096.003 -402.293)" fill="#3e3d3d" fill-rule="evenodd"/>
    <path id="Path_14346" data-name="Path 14346" d="M2051.265,972.6a1.366,1.366,0,0,1,1.365,1.368v1.112a5.5,5.5,0,0,1,5.379,5.5h-2.732a2.761,2.761,0,0,0-2.759-2.763h-2.23a3.039,3.039,0,0,0,0,6.077h2.23a5.5,5.5,0,0,1,.113,11V996a1.366,1.366,0,1,1-2.731,0v-1.111h-.437a4.945,4.945,0,0,1-4.941-4.948h2.732a2.211,2.211,0,0,0,2.209,2.212h3.056a2.764,2.764,0,0,0,0-5.527h-2.23a5.775,5.775,0,0,1-.388-11.537V973.97A1.367,1.367,0,0,1,2051.265,972.6Zm16.135,39.72a.82.82,0,0,1,.82.821v.561a3.114,3.114,0,0,1,2.934,3.111h-1.639a1.474,1.474,0,0,0-1.473-1.475h-1.131a1.627,1.627,0,0,0,0,3.255h1.131a3.116,3.116,0,0,1,.177,6.227v.561a.819.819,0,1,1-1.639,0v-.556h-.128a2.808,2.808,0,0,1-2.806-2.81h1.639a1.167,1.167,0,0,0,1.167,1.168h1.589a1.474,1.474,0,0,0,0-2.948h-1.131a3.269,3.269,0,0,1-.331-6.521v-.573A.82.82,0,0,1,2067.4,1012.322Z" transform="translate(-1910.844 -909.382)" fill="#fff" fill-rule="evenodd"/>
  </g>
</svg>
